<?xml version="1.0" encoding="iso-8859-1"?>
<!-- Generator: Adobe Illustrator 19.0.0, SVG Export Plug-In . SVG Version: 6.00 Build 0)  -->
<svg version="1.1" id="Layer_1" xmlns="http://www.w3.org/2000/svg" xmlns:xlink="http://www.w3.org/1999/xlink" x="0px" y="0px"
	 viewBox="0 0 297.001 297.001" style="enable-background:new 0 0 297.001 297.001;" xml:space="preserve">
<g>
	<g>
		<g>
			<path d="M24.83,171.571h19.425v-9.343c0-12.743,10.367-23.111,23.111-23.111c12.744,0,23.111,10.367,23.111,23.111v9.343h116.046
				v-9.343c0-12.743,10.367-23.111,23.111-23.111c12.744,0,23.111,10.367,23.111,23.111v9.343h19.425
				c13.691,0,24.83-9.541,24.83-21.267V96.225c0-13.495-10.979-24.475-24.475-24.475H24.475C10.979,71.75,0,82.729,0,96.225v54.078
				C0,162.029,11.139,171.571,24.83,171.571z"/>
			<path d="M272.171,185.338h-19.425v9.343c0,12.743-10.367,23.111-23.111,23.111s-23.111-10.367-23.111-23.111v-9.343H90.477v9.343
				c0,12.743-10.367,23.111-23.111,23.111c-12.744,0-23.111-10.367-23.111-23.111v-9.343H24.83c-9.45,0-18.113-3.104-24.83-8.24
				v83.585c0,13.496,10.979,24.475,24.475,24.475h248.051c13.495,0,24.475-10.979,24.475-24.475v-83.585
				C290.284,182.235,281.621,185.338,272.171,185.338z M180.953,217.792h-64.907c-3.802,0-6.884-3.082-6.884-6.884
				s3.082-6.884,6.884-6.884h64.907c3.802,0,6.884,3.082,6.884,6.884S184.755,217.792,180.953,217.792z"/>
			<path d="M220.291,162.227v32.454c0,5.152,4.191,9.343,9.343,9.343c5.152-0.001,9.343-4.192,9.343-9.343v-32.454
				c0-5.152-4.191-9.343-9.343-9.343C224.482,152.884,220.291,157.076,220.291,162.227z"/>
			<path d="M109.654,42.493c0-6.055,4.926-10.981,10.981-10.981h55.729c6.055,0,10.982,4.926,10.982,10.981v15.489h19.669V42.493
				c0-16.9-13.75-30.65-30.651-30.65h-55.729c-16.9,0-30.65,13.75-30.65,30.65v15.489h19.669V42.493z"/>
			<path d="M58.023,162.227v32.454c0,5.152,4.191,9.343,9.343,9.343c5.151-0.001,9.343-4.192,9.343-9.343v-32.454
				c0-5.152-4.191-9.343-9.343-9.343C62.214,152.884,58.023,157.076,58.023,162.227z"/>
		</g>
	</g>
</g>
<g>
</g>
<g>
</g>
<g>
</g>
<g>
</g>
<g>
</g>
<g>
</g>
<g>
</g>
<g>
</g>
<g>
</g>
<g>
</g>
<g>
</g>
<g>
</g>
<g>
</g>
<g>
</g>
<g>
</g>
</svg>
