<?xml version="1.0" encoding="iso-8859-1"?>
<!-- Generator: Adobe Illustrator 19.0.0, SVG Export Plug-In . SVG Version: 6.00 Build 0)  -->
<svg version="1.1" id="Layer_1" xmlns="http://www.w3.org/2000/svg" xmlns:xlink="http://www.w3.org/1999/xlink" x="0px" y="0px"
	 viewBox="0 0 511.999 511.999" style="enable-background:new 0 0 511.999 511.999;" xml:space="preserve">
<g>
	<g>
		<path d="M488.893,132.112c-25.4-39.703-60.544-72.844-101.633-95.842C344.864,12.542,296.619,0,247.745,0
			c-4.496,0-8.139,3.644-8.139,8.139V60.3c-44.374,1.564-86.71,15.903-122.906,41.719c-3.66,2.61-4.511,7.693-1.901,11.352
			c2.61,3.658,7.691,4.512,11.353,1.9c33.421-23.836,72.491-37.132,113.455-38.688v88.246c-39.534,2.579-74.963,23.868-95.91,58.052
			c-2.348,3.833-1.146,8.843,2.687,11.191c1.327,0.813,2.795,1.2,4.245,1.2c2.738,0,5.411-1.381,6.946-3.888
			c17.964-29.315,48.212-47.674,82.032-50.225v104.917c0,2.972,1.62,5.709,4.228,7.137c1.221,0.669,2.567,1.002,3.911,1.002
			c1.525,0,3.048-0.429,4.38-1.278l88.636-56.587c8.295,15.351,12.653,32.532,12.653,50.161
			c0,58.267-47.403,105.669-105.669,105.669c-4.131,0-8.337-0.248-12.502-0.74c-32.486-3.826-60.886-22.131-77.922-50.222
			c-9.974-16.447-15.246-35.365-15.246-54.706c0-9.704,1.314-19.315,3.904-28.565c1.212-4.329-1.313-8.82-5.642-10.032
			c-4.32-1.21-8.819,1.315-10.031,5.642c-2.992,10.679-4.508,21.767-4.508,32.956c0,19.591,4.691,38.811,13.628,56.062
			l-74.82,45.608c-17.365-31.095-26.509-66.222-26.509-102.104c0-57.289,22.675-110.789,63.846-150.646
			c3.229-3.126,3.313-8.279,0.187-11.508c-3.127-3.229-8.276-3.314-11.508-0.187c-44.367,42.95-68.801,100.603-68.801,162.34
			c0,41.605,11.41,82.275,32.997,117.612c17.542,28.717,41.738,53.594,69.969,71.939c28.869,18.761,62.191,30.797,96.362,34.807
			c8.858,1.04,17.806,1.566,26.597,1.566c124.575,0,225.923-101.349,225.923-225.924c0-40.531-10.769-79.993-31.215-114.649
			l43.964-28.068c1.821-1.162,3.103-3,3.568-5.11C490.45,136.139,490.057,133.932,488.893,132.112z M214.99,493.161
			c-28.861-4.552-56.828-15.255-81.336-31.181c-23.926-15.551-44.73-36.154-60.562-59.909l74.766-45.576
			c18.397,26.309,45.96,44.071,77.421,49.894L214.99,493.161z M457.391,286.075c0,115.6-94.047,209.647-209.646,209.647
			c-5.483,0-11.037-0.221-16.587-0.66l10.289-86.771c2.107,0.11,4.21,0.164,6.298,0.164c67.242,0,121.946-54.705,121.946-121.946
			c0-20.744-5.223-40.956-15.171-58.945l60.845-38.845l13.36-8.529C447.505,212.223,457.391,248.654,457.391,286.075z
			 M426.954,162.009c-0.001,0-0.002,0.001-0.003,0.001l-87.85,56.084c-0.004,0.002-0.008,0.005-0.012,0.009l-83.207,53.121v-98.522
			V68.29V16.398c86.618,2.567,165.907,46.009,214.807,117.69L426.954,162.009z"/>
	</g>
</g>
<g>
</g>
<g>
</g>
<g>
</g>
<g>
</g>
<g>
</g>
<g>
</g>
<g>
</g>
<g>
</g>
<g>
</g>
<g>
</g>
<g>
</g>
<g>
</g>
<g>
</g>
<g>
</g>
<g>
</g>
</svg>
