<svg id="Layer_1" enable-background="new 0 0 512 512" height="512" viewBox="0 0 512 512" width="512" xmlns="http://www.w3.org/2000/svg"><g><path d="m175.667 94.267h48.2c19.902-.793 19.887-29.215 0-30h-48.2c-19.902.792-19.887 29.214 0 30z"/><path d="m247.967 417.733h-96.4c-19.902.793-19.887 29.215 0 30h96.4c19.902-.792 19.887-29.214 0-30z"/><path d="m231.9 208.867h-32.133c-19.902.793-19.887 29.215 0 30h32.133c19.902-.793 19.887-29.215 0-30z"/><path d="m231.9 273.133h-32.133c-19.902.793-19.887 29.215 0 30h32.133c19.902-.792 19.887-29.214 0-30z"/><path d="m456.833 144.6h-97.466v-65.333c0-43.852-35.486-79.267-79.267-79.267h-160.667c-43.851 0-79.266 35.487-79.266 79.267v353.467c0 43.852 35.486 79.267 79.267 79.267h160.666c43.851 0 79.267-35.485 79.267-79.267v-65.334h97.466c8.284 0 15-6.716 15-15v-192.8c0-8.284-6.716-15-15-15zm-176.733 337.4h-160.667c-27.255 0-49.267-22.055-49.267-49.267v-353.466c.001-27.252 22.052-49.267 49.267-49.267h160.667c27.252 0 49.267 22.051 49.267 49.267v67.142c-13.168 3.205-24.715 10.514-33.2 20.513-11.584-13.65-28.859-22.322-48.2-22.322h-112.467c-8.284 0-15 6.716-15 15v192.8c0 8.284 6.716 15 15 15h112.466c18.307 0 33.2 14.894 33.2 33.2 0 8.284 6.716 15 15 15s15-6.716 15-15c0-12.91 7.412-24.115 18.2-29.604v61.737c.001 27.256-22.052 49.267-49.266 49.267zm1.067-274.2v139.041c-9.654-5.983-21.032-9.441-33.2-9.441h-97.467v-162.8h97.466c18.352 0 33.201 14.841 33.201 33.2zm160.666 129.6h-97.466c-12.168 0-23.546 3.458-33.2 9.441v-139.041c0-18.359 14.849-33.2 33.2-33.2h97.466z"/><path d="m360.433 238.867h32.133c19.902-.793 19.887-29.215 0-30h-32.133c-19.902.792-19.887 29.214 0 30z"/><path d="m360.433 303.133h32.133c19.902-.793 19.887-29.215 0-30h-32.133c-19.902.793-19.887 29.215 0 30z"/></g></svg>