<?xml version="1.0" encoding="iso-8859-1"?>
<!-- Generator: Adobe Illustrator 18.0.0, SVG Export Plug-In . SVG Version: 6.00 Build 0)  -->
<!DOCTYPE svg PUBLIC "-//W3C//DTD SVG 1.1//EN" "http://www.w3.org/Graphics/SVG/1.1/DTD/svg11.dtd">
<svg version="1.1" id="Capa_1" xmlns="http://www.w3.org/2000/svg" xmlns:xlink="http://www.w3.org/1999/xlink" x="0px" y="0px"
	 viewBox="0 0 475.949 475.949" style="enable-background:new 0 0 475.949 475.949;" xml:space="preserve">
<g>
	<path d="M473.02,78.493l-26.468-26.468c-1.875-1.875-4.419-2.929-7.071-2.929s-5.196,1.053-7.071,2.929l-19.602,19.602
		c-1.557-0.951-3.353-1.477-5.209-1.477c-2.652,0-5.196,1.053-7.071,2.929l-58.747,58.747c-2.516-3.124-5.207-6.123-8.059-8.975
		c-21.054-21.054-49.042-32.649-78.807-32.649c-26.544,0-51.676,9.222-71.736,26.15c-20.059-16.926-45.189-26.147-71.735-26.147
		c-29.768,0-57.755,11.594-78.806,32.646C11.591,143.898,0,171.881,0,201.646c0,29.773,11.591,57.76,32.637,78.807l143.471,143.471
		c1.875,1.875,4.419,2.929,7.071,2.929s5.196-1.053,7.071-2.929l143.471-143.471c18.83-18.83,30.197-43.547,32.276-69.969
		l77.063-77.063c1.985,6.966,0.249,14.778-5.226,20.252l-52.947,52.948c-3.905,3.905-3.905,10.237,0,14.142
		c1.952,1.953,4.512,2.929,7.071,2.929s5.119-0.976,7.071-2.929l52.947-52.948c15.28-15.281,15.809-39.807,1.595-55.734
		l19.447-19.448C476.925,88.729,476.925,82.398,473.02,78.493z M439.481,73.238l12.326,12.326L439.481,97.89l-12.326-12.326
		L439.481,73.238z M275.714,249.331c-6.384-6.384-6.384-16.77,0-23.154L384.74,117.151l23.154,23.153L298.867,249.331
		C292.484,255.715,282.097,255.714,275.714,249.331z M319.58,266.311l-136.4,136.4L46.78,266.311
		C29.51,249.042,20,226.077,20,201.646c0-24.423,9.51-47.384,26.78-64.653c17.274-17.274,40.239-26.788,64.664-26.788
		s47.39,9.514,64.664,26.788c1.875,1.875,4.419,2.929,7.071,2.929s5.196-1.053,7.071-2.929
		c17.276-17.276,40.241-26.791,64.665-26.791c24.423,0,47.388,9.514,64.665,26.791c2.859,2.859,5.517,5.897,7.957,9.077
		l-65.965,65.965c-11.737,11.737-13.749,29.561-6.059,43.398l-4.267,4.297H110.95c-5.523,0-10,4.477-10,10s4.477,10,10,10h144.458
		c2.665,0,5.219-1.063,7.096-2.954l7.162-7.213c5.463,3.024,11.541,4.546,17.624,4.546c9.314,0,18.628-3.545,25.719-10.636
		l26.074-26.074C334.543,248.092,327.973,257.918,319.58,266.311z M422.036,126.162l-23.154-23.153l8.717-8.717l23.153,23.154
		L422.036,126.162z"/>
	<path d="M110.95,187.853h144.458c5.523,0,10-4.477,10-10s-4.477-10-10-10H110.95c-5.523,0-10,4.477-10,10
		S105.427,187.853,110.95,187.853z"/>
	<path d="M233.156,213.792h-99.953c-5.523,0-10,4.477-10,10s4.477,10,10,10h99.953c5.523,0,10-4.477,10-10
		S238.679,213.792,233.156,213.792z"/>
</g>
<g>
</g>
<g>
</g>
<g>
</g>
<g>
</g>
<g>
</g>
<g>
</g>
<g>
</g>
<g>
</g>
<g>
</g>
<g>
</g>
<g>
</g>
<g>
</g>
<g>
</g>
<g>
</g>
<g>
</g>
</svg>
